<svg xmlns="http://www.w3.org/2000/svg" width="120" height="40" viewBox="0 0 120 40" fill="none">
  <path d="M18 10C14.13 10 11 13.13 11 17C11 23 18 29 18 29C18 29 25 23 25 17C25 13.13 21.87 10 18 10ZM18 19.5C16.62 19.5 15.5 18.38 15.5 17C15.5 15.62 16.62 14.5 18 14.5C19.38 14.5 20.5 15.62 20.5 17C20.5 18.38 19.38 19.5 18 19.5Z" fill="#00A8E8"/>
  <path d="M24 15L27 12L30 15" stroke="#00A8E8" stroke-width="2" stroke-linecap="round" stroke-linejoin="round"/>
  <path d="M27 12V18" stroke="#00A8E8" stroke-width="2" stroke-linecap="round" stroke-linejoin="round"/>
  <path d="M40 15H60" stroke="#00A8E8" stroke-width="2" stroke-linecap="round"/>
  <text x="36" y="25" font-family="Arial, sans-serif" font-weight="bold" font-size="14" fill="#00A8E8">GeoSnap</text>
</svg>